<svg width="32" height="32" viewBox="0 0 32 32" xmlns="http://www.w3.org/2000/svg"><title>icon-email</title><g fill="none" fill-rule="evenodd"><path d="M16 31.515C7.428 31.515.485 24.572.485 16 .485 7.428 7.428.485 16 .485 24.572.485 31.515 7.428 31.515 16c0 8.572-6.943 15.515-15.515 15.515z" stroke="#75A3CD"/><g fill="#75A3CD"><path d="M20.11 15.15l2.73 4.34-3.52-3.72-3.3 2.58-.02-.01-.02.01-3.3-2.58-3.52 3.72 2.73-4.34L7 11.32V22h18V11.32z"/><path d="M8.08 10c-.33 0-.61.15-.81.39l8.71 6.83.02-.02.02.02 8.71-6.83c-.2-.24-.48-.39-.81-.39"/></g></g></svg>