
<svg width="32" height="32" viewBox="0 0 32 32" xmlns="http://www.w3.org/2000/svg" xmlns:xlink="http://www.w3.org/1999/xlink">
        <g fill="none" fill-rule="evenodd">
          <path d="M16 0C7.163 0 0 7.163 0 16c0 8.836 7.163 16 16 16 2.322 0 4.528-.495 6.52-1.384C28.105 28.12 32 22.516 32 16c0-8.837-7.164-16-16-16z"></path>
          <path stroke="#75A3CD" d="M16 .5C7.44.5.5 7.44.5 16c0 8.56 6.94 15.5 15.5 15.5 2.206 0 4.346-.46 6.315-1.34C27.855 27.683 31.5 22.174 31.5 16 31.5 7.44 24.56.5 16 .5z"></path>
          <path fill="#75A3CD" d="M12 24V8l12 8"></path>
        </g>
      </svg>
