<svg width="32" height="32" viewBox="0 0 32 32" xmlns="http://www.w3.org/2000/svg"><title>icon-twitter</title><g fill="none" fill-rule="evenodd"><path d="M16 31.515C7.428 31.515.485 24.572.485 16 .485 7.428 7.428.485 16 .485 24.572.485 31.515 7.428 31.515 16c0 8.572-6.943 15.515-15.515 15.515z" stroke="#75A3CD"/><path d="M25.115 8.834a6.766 6.766 0 0 1-2.279.95c-.65-.766-1.58-1.241-2.608-1.241-1.978 0-3.578 1.755-3.578 3.918 0 .31.029.61.087.892-2.977-.165-5.615-1.726-7.38-4.092a4.165 4.165 0 0 0-.484 1.968c0 1.358.63 2.56 1.59 3.258a3.362 3.362 0 0 1-1.62-.485v.049c0 1.9 1.232 3.481 2.87 3.84a3.394 3.394 0 0 1-1.618.068c.455 1.551 1.784 2.686 3.345 2.715-1.222 1.057-2.764 1.678-4.441 1.678-.291 0-.582-.02-.854-.049 1.581 1.105 3.462 1.755 5.489 1.755 6.584 0 10.182-5.963 10.182-11.142l-.01-.504a7.555 7.555 0 0 0 1.794-2.036c-.65.32-1.338.523-2.056.62.737-.484 1.3-1.25 1.571-2.162" fill="#75A3CD"/></g></svg>