<svg width="19px" height="17px" viewBox="0 0 19 17" version="1.1" xmlns="http://www.w3.org/2000/svg" xmlns:xlink="http://www.w3.org/1999/xlink">
    <!-- Generator: Sketch 45 (43475) - http://www.bohemiancoding.com/sketch -->
    <desc>Created with Sketch.</desc>
    <defs></defs>
    <g id="footer" stroke="none" stroke-width="1" fill="none" fill-rule="evenodd">
        <g id="footer-2" transform="translate(-1401.000000, -4497.000000)" fill="#FFFFFF">
            <g id="Group-8" transform="translate(0.000000, 4473.000000)">
                <g id="Page-1-Copy" transform="translate(1401.000000, 24.000000)">
                    <path d="M18.0659933,0.88026936 C17.3392593,1.35111111 16.5306397,1.69912458 15.6606061,1.883367 C14.9748148,1.07474747 13.9921886,0.573198653 12.9072054,0.573198653 C10.8191246,0.573198653 9.13023569,2.42585859 9.13023569,4.70841751 C9.13023569,5.0359596 9.16094276,5.35326599 9.2223569,5.65010101 C6.08,5.47609428 3.29589226,3.82814815 1.43299663,1.33063973 C1.10545455,1.94478114 0.921212121,2.65104377 0.921212121,3.40848485 C0.921212121,4.84148148 1.58653199,6.11070707 2.59986532,6.84767677 C1.98572391,6.82720539 1.40228956,6.64296296 0.890505051,6.33589226 L0.890505051,6.38707071 C0.890505051,8.39326599 2.19043771,10.0616835 3.92026936,10.440404 C3.60296296,10.5325253 3.26518519,10.5837037 2.92740741,10.5837037 C2.68175084,10.5837037 2.44632997,10.5632323 2.21090909,10.5120539 C2.69198653,12.1497643 4.09427609,13.3473401 5.74222222,13.3780471 C4.45252525,14.4937374 2.82505051,15.1488215 1.05427609,15.1488215 C0.747205387,15.1488215 0.44013468,15.1283502 0.153535354,15.0976431 C1.82195286,16.2645118 3.80767677,16.950303 5.94693603,16.950303 C12.8969697,16.950303 16.6944108,10.6553535 16.6944108,5.18949495 L16.6841751,4.65723906 C17.4313805,4.07380471 18.0659933,3.34707071 18.5777778,2.50774411 C17.8919865,2.84552189 17.1652525,3.06047138 16.4078114,3.16282828 C17.1857239,2.65104377 17.7793939,1.84242424 18.0659933,0.88026936" id="Fill-3"></path>
                </g>
            </g>
        </g>
    </g>
</svg>
