<svg fill="none" xmlns="http://www.w3.org/2000/svg" viewBox="0 0 186 45"><path fill-rule="evenodd" clip-rule="evenodd" d="M35.673 27.271c-2.46 0-3.575-.221-5.885-.221-2.31 0-3.276.221-5.735.221-.186 0-.337-.221-.337-.521 0-.296.113-.484.298-.522 3.577-.409 3.8-1.229 3.764-3.129L26.995 5.03l-8.976 22.54c-.074.187-.262.298-.521.298-.299 0-.484-.147-.522-.298L8.522 5.923l-1.34 17.176c-.15 1.9.296 2.72 3.873 3.129.185.038.26.226.26.522 0 .3-.188.521-.335.521-1.9 0-3.314-.221-5.064-.221-1.827 0-3.205.221-4.918.221-.15 0-.26-.221-.26-.521 0-.296.187-.484.334-.522 3.651-.409 4.135-1.229 4.284-3.129L7.293 5.552c.185-1.938-.372-2.721-3.947-3.169-.15 0-.262-.223-.262-.52 0-.261.187-.521.334-.521 1.305 0 2.498.221 3.539.221 1.305 0 2.459-.221 3.8-.221l8.007 20.752 8.267-20.752c1.454 0 2.385.221 3.69.221 1.562 0 2.195-.221 3.834-.221.187 0 .336.26.336.522 0 .296-.112.52-.298.52-3.576.447-3.8 1.23-3.762 3.168l.856 17.547c.075 1.9.337 2.72 3.986 3.129.149.038.298.226.298.522 0 .3-.113.521-.298.521m6.045-21.123a1.947 1.947 0 01-1.935-1.938c0-1.08.856-1.938 1.935-1.938 1.08 0 1.936.858 1.936 1.938a1.947 1.947 0 01-1.936 1.938m4.246 21.122c-1.563 0-2.421-.22-4.207-.22-1.789 0-2.608.22-4.173.22-.186 0-.298-.22-.298-.519 0-.298.112-.485.298-.522 2.16-.26 2.495-.745 2.495-3.13v-6.892c0-1.975-.296-2.384-2.048-2.57-.185 0-.298-.224-.298-.484 0-.262.113-.448.298-.448 1.752-.447 3.428-1.007 4.656-1.938.149-.074.224-.296.522-.296.298 0 .521.147.521.296-.113 1.564-.298 4.545-.298 6.483v5.85c0 2.385.334 2.87 2.532 3.13.149.037.298.224.298.522 0 .298-.15.52-.298.52m14.342-12.778c0-1.268-1.75-2.684-3.574-2.684-3.726 0-5.44 2.796-5.44 7.638 0 3.541 1.603 7.006 4.731 7.006 1.9 0 3.091-.97 4.283-2.423v-9.537zm5.402 11.997c-1.378.146-3.577.743-4.656 1.267-.188.11-.41.221-.596.221-.224 0-.299-.149-.299-.296l.15-2.012c-1.118 1.228-2.645 2.16-5.03 2.16-4.319 0-7.745-3.837-7.745-8.42 0-5.737 4.284-8.794 8.789-8.794 1.303 0 2.719.411 3.986 1.342V5.736c0-2.01-.299-2.383-2.087-2.568-.147-.039-.298-.224-.298-.484 0-.262.151-.487.298-.487 1.75-.41 3.428-1.006 4.656-1.898.15-.113.224-.298.522-.298.298 0 .521.149.521.298-.112 1.527-.298 4.545-.298 6.483V23.21c0 1.825.411 2.125 2.087 2.347.149 0 .298.225.298.483 0 .3-.113.413-.298.45zM80.5 14.494c0-1.268-1.75-2.684-3.575-2.684-3.726 0-5.44 2.796-5.44 7.638 0 3.541 1.603 7.006 4.733 7.006 1.897 0 3.09-.97 4.282-2.423v-9.537zm5.4 11.997c-1.377.146-3.576.743-4.655 1.267-.188.11-.41.221-.596.221-.224 0-.299-.149-.299-.296l.15-2.012c-1.118 1.228-2.645 2.16-5.03 2.16-4.319 0-7.745-3.837-7.745-8.42 0-5.737 4.284-8.794 8.79-8.794 1.302 0 2.718.411 3.985 1.342V5.736c0-2.01-.299-2.383-2.087-2.568-.147-.039-.298-.224-.298-.484 0-.262.151-.487.298-.487 1.75-.41 3.428-1.006 4.656-1.898.15-.113.224-.298.522-.298.298 0 .522.149.522.298-.113 1.527-.299 4.545-.299 6.483V23.21c0 1.825.411 2.125 2.087 2.347.147 0 .298.225.298.483 0 .3-.113.413-.298.45zm10.1.743c-1.566 0-2.422-.185-4.21-.185-1.75 0-2.606.185-4.17.185-.15 0-.299-.221-.299-.522 0-.26.15-.483.298-.521 2.161-.222 2.534-.746 2.534-3.129V5.737c0-2.011-.298-2.384-2.087-2.57-.149-.037-.298-.225-.298-.485s.15-.447.298-.447c1.75-.447 3.426-1.005 4.656-1.936.15-.074.222-.3.52-.3.298 0 .524.151.524.3-.113 1.563-.298 4.545-.298 6.483v16.28c0 2.383.37 2.907 2.531 3.129.15.038.298.262.298.521 0 .3-.149.522-.298.522m9.314-15.424c-2.086 0-3.464 2.012-3.911 4.36l5.178-.15c1.861-.038 2.159-.372 2.159-.969 0-1.787-1.303-3.241-3.426-3.241m6.145 5.403h-10.205a19.18 19.18 0 00-.11 2.087c0 4.172 2.158 6.221 5.473 6.221 1.974 0 3.873-1.23 4.842-2.498.11-.183.558.113.558.635 0 .113-.035.187-.111.298-1.19 1.75-3.428 3.874-6.592 3.874-4.507 0-7.932-3.761-7.932-8.493 0-4.51 3.016-8.72 7.932-8.72 4.469 0 6.815 3.614 6.815 6.074 0 .337-.259.522-.67.522m10.916-5.216c-1.822 0-3.834 1.714-3.834 2.98v8.608c0 1.378 2.68 3.016 4.283 3.016 3.5 0 4.729-3.762 4.729-7.301 0-4.247-1.676-7.303-5.178-7.303m.894 15.833c-3.166 0-3.462-1.266-5.437-1.266-.856 0-1.563.448-1.863 1.193-.036.147-.26.224-.445.224-.3 0-.485-.113-.485-.299.076-.783.151-2.236.151-3.763V5.738c0-1.975-.3-2.386-2.051-2.571-.187 0-.298-.187-.298-.445 0-.262.111-.524.298-.524 1.751-.447 3.426-1.005 4.657-1.9.11-.11.223-.298.519-.298.3 0 .522.113.522.298-.111 1.527-.296 4.583-.296 6.521v5.587c1.079-1.08 2.716-1.75 4.283-1.75 4.505 0 8.489 2.757 8.489 8.495 0 4.545-3.76 8.679-8.044 8.679m27.568-1.34c-1.565.148-3.54.448-4.658 1.268a.83.83 0 01-.52.222c-.259 0-.372-.15-.372-.297l.149-2.347c-1.603 1.45-3.279 2.494-4.991 2.494-3.762 0-5.401-2.457-5.401-5.364v-6.967c0-2.385-.483-2.83-2.644-2.756-.185.036-.298-.187-.298-.45 0-.295.113-.595.298-.595 1.416 0 3.985-.446 5.586-.857.224-.036.409.188.409.486v10.246c0 2.383.709 4.023 3.317 4.023 1.676 0 2.642-.67 3.724-1.863v-8.234c0-2.385-.522-2.83-2.683-2.756-.185.036-.296-.187-.296-.45 0-.295.111-.595.296-.595 1.454 0 3.986-.446 5.625-.857.185-.036.373.188.373.486V23.21c0 1.825.408 2.125 2.086 2.347.147 0 .296.224.296.483 0 .3-.111.411-.296.45m13.004-12.22c-1.488 0-1.676-.968-2.719-.968-1.079 0-1.75.594-2.495 1.414V23.1c0 2.383.783 2.87 2.942 3.13.188.037.3.224.3.52 0 .3-.112.522-.3.522-1.563 0-2.829-.221-4.618-.221-1.788 0-2.644.221-4.209.221-.149 0-.296-.221-.296-.521 0-.297.147-.484.296-.52 2.198-.26 2.534-.748 2.534-3.13v-6.893c0-1.976-.298-2.385-2.087-2.57-.149 0-.298-.224-.298-.486s.149-.445.298-.445c1.751-.447 3.315-1.008 4.546-1.938.109-.075.221-.298.521-.298.258 0 .52.149.52.298l-.149 2.347c1.565-1.453 2.981-2.496 4.692-2.496 1.193 0 2.087.894 2.087 1.861 0 .971-.671 1.79-1.565 1.79m21.309-2.012c-1.788.185-2.421.856-3.464 3.128l-8.789 19c-1.045 2.163-2.273 3.056-3.427 3.056-1.303 0-2.085-.782-2.085-1.825 0-1.044.746-1.9 2.085-1.9.783 0 1.154.447 1.565.447.521 0 .968-.632 1.601-2.087l2.271-5.028-4.805-11.663c-.779-1.936-1.45-2.907-3.276-3.128-.186-.039-.299-.262-.299-.524 0-.296.113-.522.299-.522 1.564 0 2.235.226 4.021.226 1.789 0 2.681-.226 4.248-.226.187 0 .296.226.296.522 0 .262-.109.485-.296.524-1.305.147-1.976.409-1.976 1.118 0 .445.187 1.08.56 2.01l3.017 7.787 3.314-7.787c.186-.447.448-1.118.448-1.75 0-.71-.448-1.231-1.789-1.378-.149-.039-.298-.262-.298-.524 0-.296.149-.522.298-.522 1.565 0 1.901.226 3.39.226.857 0 1.788-.226 3.091-.226.149 0 .296.226.296.522 0 .262-.147.485-.296.524M15.18 33.803c-1.468.165-1.694.498-1.845 1.286l-.983 7.123c-.106.772-.12 1.104 1.36 1.271.062.015.092.059.092.135 0 .135-.092.288-.18.288-1 0-1.409-.09-2.345-.09-.937 0-1.361.09-2.358.09-.047 0-.09-.016-.09-.137 0-.137.09-.271.18-.286 1.332-.153 1.618-.425 1.738-1.27l1.06-7.261-5.051 9.073c-.045.077-.121.123-.242.123-.105 0-.181-.062-.181-.123L5.11 35.24l-2.19 6.972c-.258.772-.154 1.104 1.312 1.271.047.015.077.059.077.135 0 .135-.09.288-.181.288-.772 0-1.301-.09-2.026-.09-.741 0-1.331.09-2.026.09-.045 0-.077-.016-.077-.137 0-.137.077-.271.183-.286 1.467-.167 1.738-.5 1.994-1.27l2.481-7.124c.242-.788.077-1.137-1.375-1.286-.06 0-.077-.06-.077-.123 0-.135.077-.302.182-.302.378 0 1.057.09 1.482.09.53 0 .983-.09 1.526-.09L7.5 41.622l4.642-8.244c.59 0 .967.09 1.496.09.62 0 .967-.09 1.633-.09.045 0 .077.032.077.151 0 .123-.062.274-.167.274m15.29 5.399h2.586l.332-3.659-2.918 3.659zm5.202 4.704c-1 0-1.331-.09-2.18-.09-.936 0-1.465.09-2.462.09-.046 0-.077-.016-.077-.135 0-.14.077-.274.181-.288 1.332-.077 1.56-.425 1.634-1.302l.242-2.496h-2.919l-1.858 2.345c-.289.379-.454.695-.454.937 0 .304.286.483.89.516.063 0 .077.058.077.135 0 .137-.076.288-.181.288-.876 0-1.06-.09-1.89-.09-.666 0-1.27.09-1.98.09-.031 0-.075-.016-.075-.135 0-.14.074-.274.165-.288 1.24-.107 1.935-.651 2.662-1.513l7.226-8.695c.06-.077.12-.123.242-.123.12 0 .18.075.18.151l-.754 8.774c-.091 1.057.255 1.269 1.42 1.406.062.014.076.058.076.135 0 .137-.06.288-.165.288zm22.384-4.433c-1.09.123-1.452.258-1.694 1.272l-.272 1.12c-.151.664-.258 1.315-.211 1.601-1.18.44-2.163.681-3.948.681-2.54 0-4.291-1.618-4.291-4.067 0-3.812 3.31-6.928 7.709-6.928.62 0 1.617.062 2.072.15-.09.667-.181 1.953-.227 2.77 0 .075-.091.136-.212.136-.12 0-.211-.047-.211-.135 0-1.666-.802-2.315-2.177-2.315-2.693 0-5.398 2.903-5.398 7.107 0 1.558 1.074 2.799 2.947 2.799 1.347 0 2.056-.333 2.223-1l.483-2.085c.03-.107.047-.197.047-.288 0-.53-.514-.711-1.74-.818-.044-.014-.075-.074-.075-.135 0-.137.075-.288.181-.288 1 0 1.587.077 2.526.077.936 0 1.375-.077 2.374-.077.029 0 .075.016.075.135 0 .123-.09.274-.181.288m15.219-.271h2.586l.332-3.659-2.918 3.659zm5.202 4.704c-1 0-1.331-.09-2.18-.09-.936 0-1.465.09-2.462.09-.046 0-.077-.016-.077-.135 0-.14.077-.274.181-.288 1.332-.077 1.56-.425 1.634-1.302l.242-2.496h-2.919l-1.859 2.345c-.287.379-.453.695-.453.937 0 .304.286.483.89.516.063 0 .077.058.077.135 0 .137-.077.288-.181.288-.876 0-1.06-.09-1.89-.09-.666 0-1.27.09-1.98.09-.031 0-.075-.016-.075-.135 0-.14.074-.274.165-.288 1.24-.107 1.935-.651 2.662-1.513l7.226-8.695c.06-.077.12-.123.242-.123.12 0 .18.075.18.151l-.754 8.774c-.091 1.057.255 1.269 1.42 1.406.062.014.076.058.076.135 0 .137-.06.288-.165.288zm21.929-10.196l-7.983 9.62h3.267c1.98 0 2.994-.892 3.627-2.312.032-.093.092-.123.197-.123.198 0 .258.09.212.197-.347.923-.772 1.952-.983 2.875-.528-.123-1.694-.151-4.113-.151-2.404 0-3.582.028-4.096.135-.12.03-.227-.123-.227-.272 0-.03.016-.077.03-.105l7.999-9.621H95.6c-1.528 0-2.586.65-3.206 2.072-.044.091-.09.121-.181.121-.198 0-.272-.09-.242-.197.349-.923.65-1.706.862-2.63.53.12 1.225.15 3.63.15 2.418 0 3.25-.014 3.763-.135.121-.03.226.12.226.272 0 .03-.015.075-.045.105m17.428.092c-1.496.182-1.557.498-1.738 1.286l-1.694 7.123c-.046.196-.092.363-.092.514 0 .423.29.635 1.347.757.058.015.075.059.075.135 0 .135-.075.288-.166.288-.998 0-1.512-.09-2.314-.09-.801 0-1.345.09-2.237.09-.044 0-.093-.016-.093-.137 0-.137.093-.271.184-.286 1.51-.167 1.57-.5 1.752-1.27l1.693-7.124c.049-.198.077-.363.077-.514 0-.425-.272-.637-1.345-.772-.045 0-.077-.06-.077-.123 0-.135.091-.302.183-.302.997 0 1.511.09 2.312.09.786 0 1.332-.09 2.238-.09.046 0 .076.032.076.151 0 .123-.076.274-.181.274m22.841.014c-1.164.123-1.452.53-1.587 1.271l-1.71 8.909c-.014.09-.09.15-.193.15-.123 0-.167-.06-.229-.122l-5.351-8.483-1.299 6.67c-.184.741.044 1.132 1.148 1.271.06.014.074.059.074.135 0 .137-.074.288-.165.288-.634 0-1.21-.09-1.815-.09-.604 0-1.224.09-1.754.09-.044 0-.09-.016-.09-.137 0-.137.09-.272.181-.286 1.178-.139 1.526-.53 1.708-1.271l1.544-7.124c.045-.137.059-.258.059-.378 0-.528-.423-.758-1.587-.907-.061 0-.075-.06-.075-.12 0-.138.075-.305.182-.305.437 0 .725.062 1.117.062.423 0 .739-.062 1.178-.062l5.265 8.153 1.117-6.443c.137-.741-.167-1.136-1.284-1.27-.047-.015-.091-.06-.091-.136 0-.137.091-.288.179-.288.62 0 1.136.075 1.817.075.648 0 1.117-.075 1.752-.075.046 0 .076.016.076.135 0 .123-.076.274-.167.288m18.908.909c0 .288.016.83.016 1.118 0 .077-.091.12-.213.12-.119 0-.196-.043-.21-.12-.123-1.376-.664-1.892-1.981-1.892h-1.028c-.394 0-.922.168-1.103.909l-.804 3.372h1.861c.818 0 1.255-.106 1.724-1.45.03-.077.105-.121.228-.121.134 0 .225.044.209.12-.179.756-.286 1.012-.451 1.723-.167.712-.228 1.211-.409 1.969-.03.088-.121.118-.213.118-.182 0-.226-.058-.21-.118.181-1.513-.137-1.757-.999-1.757h-1.842l-.832 3.495c-.046.196-.091.363-.091.514 0 .453.3.604.709.604h1.845c1.271 0 2.449-.892 2.841-2.177 0-.045.063-.061.123-.061.165 0 .316.12.3.197-.255.8-.497 1.709-.68 2.617-.923-.032-3.249-.09-4.215-.09-.969 0-3.297.058-4.22.09-.046 0-.09-.016-.09-.137 0-.137.09-.271.181-.286 1.513-.167 1.571-.5 1.754-1.27l1.694-7.124c.044-.198.074-.363.074-.514 0-.425-.271-.637-1.345-.772-.046 0-.076-.06-.076-.123 0-.135.092-.302.183-.302.783.047 2.841.09 3.673.09.816 0 2.872-.044 3.657-.09-.044.5-.06.909-.06 1.348" fill="#fff"/></svg>