<svg width="42" height="47" fill="none" xmlns="http://www.w3.org/2000/svg"><path fill-rule="evenodd" clip-rule="evenodd" d="M20.92 46.242l-.225-.11C10.048 40.986 5.247 34.724 2.88 30.162.296 25.18.256 21.458.256 21.302V.258h41.305v21.043c0 .155-.03 3.878-2.605 8.858-2.36 4.562-7.155 10.824-17.81 15.974l-.226.108z" fill="#fff"/><path fill-rule="evenodd" clip-rule="evenodd" d="M1.042 1.05V21.3c0 .034.049 3.67 2.537 8.434 2.282 4.371 7.14 10.612 17.34 15.6 10.21-4.99 15.062-11.23 17.338-15.6 2.48-4.765 2.518-8.398 2.518-8.434V1.05H1.042zM20.92 46.5l-.225-.11C10.048 41.244 4.99 34.725 2.624 30.16.04 25.18 0 21.459 0 21.303V0h41.817v21.3c0 .156-.029 3.879-2.605 8.859-2.36 4.562-7.41 11.082-18.067 16.232l-.225.109z" fill="#000"/><path fill-rule="evenodd" clip-rule="evenodd" d="M13.385 7.917a4.615 4.615 0 00-1.823-1.471c.278.405.513.904.694 1.47h1.13zM10.1 6.147v1.77h1.336c-.337-.926-.827-1.554-1.336-1.77m-2.551 4.135h1.77V8.704H7.751a8.623 8.623 0 00-.203 1.578m.434-2.365h1.336v-1.77c-.509.216-.999.844-1.336 1.77m-.23 4.731h1.566V11.07h-1.77c.023.573.094 1.102.204 1.578m1.566 2.557v-1.77H7.982c.337.927.827 1.554 1.336 1.77M6.767 11.07H5.138a4.63 4.63 0 00.425 1.578h1.393a9.46 9.46 0 01-.189-1.578m4.899-2.366H10.1v1.578h1.77a8.59 8.59 0 00-.204-1.578m-4.71 0H5.562a4.613 4.613 0 00-.424 1.578h1.63a9.498 9.498 0 01.188-1.578m-.923 4.732a4.62 4.62 0 001.823 1.47 5.64 5.64 0 01-.693-1.47h-1.13zm6.617-3.154h1.63a4.605 4.605 0 00-.424-1.578h-1.394c.103.493.168 1.023.189 1.578M7.856 6.446a4.618 4.618 0 00-1.823 1.47h1.13c.18-.566.415-1.064.693-1.47m4.606 6.202h1.394a4.61 4.61 0 00.424-1.578h-1.63a9.457 9.457 0 01-.188 1.578" fill="#000"/><path fill-rule="evenodd" clip-rule="evenodd" d="M36.917 13.07l-5.01 2.961-5.012-2.961V7.352h.782v5.266l4.23 2.5 4.229-2.5V7.352h.781v5.718zm-8.452-6.218s2.085.034 3.021 1.772v5.28c-.936-1.737-3.021-1.77-3.021-1.77s-.03-5.316 0-5.282zm3.798 1.818c.946-1.738 3.053-1.772 3.053-1.772.03-.034 0 5.28 0 5.28s-2.107.034-3.053 1.772V8.67zm-6.82 8.14h-9.07v-.919h1.374v-4.52h6.323v4.52h1.374v.92zM9.71 16.091c-2.962 0-5.372-2.429-5.372-5.415S6.747 5.26 9.709 5.26c2.963 0 5.372 2.429 5.372 5.415s-2.41 5.415-5.372 5.415zM21.364 2.335v.524a1.1 1.1 0 01.678 1.004c0 .45-.28.831-.678 1.003v.637c.598.22 1.675.747 2.168 1.817a5.81 5.81 0 01.55 2.345h.425v.919H17.31v-.92h.425a5.803 5.803 0 01.55-2.344c.492-1.068 1.57-1.596 2.168-1.817v-.638a1.098 1.098 0 01-.678-1.002c0-.45.28-.831.678-1.003v-.525H2.56V20.74s.003.828.275 2.205l.094-.032c1.956-.673 5.486-1.827 7.824-1.827s3.197.625 5.439.625c.258 0 .508.006.753.014v-4.133h7.927v4.269c1.589-.049 2.771-.002 4.201.259 1.98.36 3.197 1.659 4.604 1.875 1.408.217 2.648-.096 4.151-.024l.92.044c.508-2.01.51-3.275.51-3.275V2.335H21.364z" fill="#000"/><path fill-rule="evenodd" clip-rule="evenodd" d="M11.87 11.07H10.1v1.578h1.566a8.6 8.6 0 00.204-1.578m-1.77 4.135c.509-.217.999-.844 1.336-1.769H10.1v1.769zm1.462-.299a4.612 4.612 0 001.823-1.47h-1.13a5.64 5.64 0 01-.693 1.47m8.502 6.449h1.69v-2.948h-1.69v2.948zm-.297 13.915c-.128-.104-.33-.208-.664-.349-.253.136-.433.343-.433.645 0 .363.258.597.66.597.36 0 .608-.213.608-.52a.445.445 0 00-.17-.373m-.433-.832c.226-.114.494-.296.494-.581 0-.275-.2-.442-.546-.442-.33 0-.546.182-.546.452 0 .302.356.473.598.572m2.86-1.009c-.201 0-.356.162-.454.437-.082.224-.118.52-.118.888 0 .348.025.619.072.81.093.406.278.577.494.577.217 0 .392-.187.485-.488.067-.223.098-.52.098-.867 0-.338-.026-.572-.077-.795-.098-.405-.274-.561-.5-.561" fill="#000"/><path fill-rule="evenodd" clip-rule="evenodd" d="M25.07 36.568c-.907 0-1.196-1.065-1.196-1.807 0-1.024.515-1.761 1.201-1.761.922 0 1.21 1.023 1.21 1.776 0 1.075-.494 1.792-1.216 1.792zm-2.886 0c-.907 0-1.195-1.065-1.195-1.807 0-1.024.515-1.761 1.2-1.761.923 0 1.211 1.023 1.211 1.776 0 1.075-.494 1.792-1.216 1.792zm-2.911.02c-.592 0-1.216-.295-1.216-.981 0-.42.278-.758.66-.893-.315-.13-.552-.447-.552-.795 0-.66.608-.919 1.17-.919.65 0 1.098.348 1.098.857 0 .426-.33.665-.686.8.5.207.814.457.814.888 0 .67-.695 1.044-1.288 1.044zm-1.716-.098h-1.633v-.462h.598v-2.306c-.052.031-.212.135-.35.202-.14.068-.33.15-.393.172l-.138-.307 1.035-.732h.402v2.971h.479v.462zm8.628-7.738v.018H15.651l-7.634 4.82c2.72 3.353 6.791 6.848 12.895 9.795 6.118-2.952 10.193-6.454 12.91-9.812l-7.637-4.821z" fill="#000"/><path fill-rule="evenodd" clip-rule="evenodd" d="M25.08 33.43c-.201 0-.356.162-.454.437-.082.224-.118.52-.118.888 0 .348.025.619.072.81.093.406.278.577.495.577.216 0 .391-.187.484-.488.067-.223.098-.52.098-.867 0-.338-.026-.572-.078-.795-.098-.405-.273-.561-.5-.561M15.47 23.43h10.877v-.788H15.47v.788zm2.124 3.498h6.629v-1.596h-6.629v1.596zm-.781.788h8.191v-3.172h-8.191v3.172zm3.251-12.824h1.69v-2.645h-1.69v2.645zm-1.432-.002h.521v-2.64h-.52v2.64zm4.031 0h.521v-2.64h-.52v2.64zM21.405 3.864a.485.485 0 01-.496.472.485.485 0 01-.497-.472c0-.263.222-.475.497-.475.274 0 .496.212.496.475m-5.773 22.05L6.59 31.662c.192.284.394.57.606.857l8.437-5.363v-1.242zM26.184 27.2l8.423 5.366c.212-.287.414-.572.607-.856l-9.03-5.752v1.243z" fill="#000"/></svg>