<svg width="21px" height="20px" viewBox="0 0 21 20" version="1.1" xmlns="http://www.w3.org/2000/svg" xmlns:xlink="http://www.w3.org/1999/xlink">
    <!-- Generator: Sketch 45 (43475) - http://www.bohemiancoding.com/sketch -->
    <desc>Created with Sketch.</desc>
    <defs></defs>
    <g id="footer" stroke="none" stroke-width="1" fill="none" fill-rule="evenodd">
        <g id="footer-2" transform="translate(-1356.000000, -4495.000000)" fill="#FFFFFF">
            <g id="Group-8" transform="translate(0.000000, 4473.000000)">
                <g id="Page-1" transform="translate(1356.000000, 22.000000)">
                    <path d="M19.8105638,0 L1.79431209,0 C1.17696064,0 0.676614589,0.492404048 0.676614589,1.09995627 L0.676614589,18.8302357 C0.676614589,19.4377133 1.17696064,19.9302667 1.79431209,19.9302667 L11.4936955,19.9302667 L11.4936955,12.2122029 L8.85447255,12.2122029 L8.85447255,9.20431158 L11.4936955,9.20431158 L11.4936955,6.98610378 C11.4936955,4.41192235 13.0912517,3.01020618 15.4246824,3.01020618 C16.5424558,3.01020618 17.5030838,3.0920495 17.7830013,3.12864004 L17.7830013,5.81886573 L16.1646543,5.81961248 C14.8956541,5.81961248 14.649882,6.4130512 14.649882,7.28390592 L14.649882,9.20431158 L17.6764672,9.20431158 L17.2824277,12.2122029 L14.649882,12.2122029 L14.649882,19.9302667 L19.8105638,19.9302667 C20.4278394,19.9302667 20.9282613,19.4377133 20.9282613,18.8302357 L20.9282613,1.09995627 C20.9282613,0.492404048 20.4278394,0 19.8105638,0" id="Fill-1"></path>
                </g>
            </g>
        </g>
    </g>
</svg>
