<svg width="52px" height="52px" viewBox="0 0 52 52" version="1.1" xmlns="http://www.w3.org/2000/svg" xmlns:xlink="http://www.w3.org/1999/xlink">
    <!-- Generator: Sketch 45.2 (43514) - http://www.bohemiancoding.com/sketch -->
    <desc>Created with Sketch.</desc>
    <defs>
        <path d="M24,0 C10.74504,0 0,10.74504 0,24 C0,37.25472 10.74504,48 24,48 C27.4826846,48 30.7921229,47.2581691 33.778919,45.9239032 C42.159545,42.1800978 48,33.7720354 48,24 C48,10.74504 37.25472,0 24,0 L24,0 Z" id="path-1"></path>
    </defs>
    <g id="story-pages" stroke="none" stroke-width="1" fill="none" fill-rule="evenodd">
        <g id="Desktop-HD-Copy-26" transform="translate(-694.000000, -667.000000)">
            <g id="Group-3-Copy-7" transform="translate(696.000000, 669.000000)">
                <g id="Fill-1-Copy">
                    <use fill="#81ABD2" fill-rule="evenodd" xlink:href="#path-1"></use>
                    <path stroke="#FFFFFF" stroke-width="2" d="M24,-1 C37.8070861,-1 49,10.1928366 49,24 C49,33.9589186 43.1227006,42.8450798 34.1867928,46.8369416 C31.0089567,48.2565491 27.555869,49 24,49 C10.1928366,49 -1,37.8070861 -1,24 C-1,10.1927553 10.1927553,-1 24,-1 Z"></path>
                </g>
                <polygon id="Path" fill="#FFFFFF" points="18 36 18 12 36 24"></polygon>
            </g>
        </g>
    </g>
</svg>
