<svg width="14px" height="14px" viewBox="0 0 14 14" version="1.1" xmlns="http://www.w3.org/2000/svg" xmlns:xlink="http://www.w3.org/1999/xlink">
    <!-- Generator: Sketch 44.1 (41455) - http://www.bohemiancoding.com/sketch -->
    <desc>Created with Sketch.</desc>
    <defs></defs>
    <g id="nav" stroke="none" stroke-width="1" fill="none" fill-rule="evenodd">
        <g id="Desktop-HD-Copy-31" transform="translate(-1404.000000, -23.000000)" fill="#FFFFFF">
            <g id="Group-6">
                <g id="Group-4">
                    <path d="M1417.70605,35.2363281 C1418.0957,35.6396484 1418.0957,36.2958984 1417.70605,36.7060547 C1417.50098,36.9042969 1417.23438,37 1416.96777,37 C1416.70117,37 1416.43457,36.9042969 1416.23633,36.7060547 L1413.0166,33.4863281 C1412.09375,34.1220703 1410.96582,34.4980469 1409.74902,34.4980469 C1406.57715,34.4980469 1404,31.9208984 1404,28.7490234 C1404,25.5771484 1406.57715,23 1409.74902,23 C1412.9209,23 1415.49805,25.5771484 1415.49805,28.7490234 C1415.49805,29.9658203 1415.12207,31.09375 1414.48633,32.0166016 L1417.70605,35.2363281 Z M1405.49707,28.7490234 C1405.49707,31.09375 1407.4043,33.0009766 1409.74902,33.0009766 C1412.09375,33.0009766 1414.00098,31.09375 1414.00098,28.7490234 C1414.00098,26.4042969 1412.09375,24.4970703 1409.74902,24.4970703 C1407.4043,24.4970703 1405.49707,26.4042969 1405.49707,28.7490234 Z" id="search-copy-15"></path>
                </g>
            </g>
        </g>
    </g>
</svg>
