<svg width="42px" height="47px" viewBox="0 0 42 47" version="1.1" xmlns="http://www.w3.org/2000/svg" xmlns:xlink="http://www.w3.org/1999/xlink">
    <!-- Generator: Sketch 45 (43475) - http://www.bohemiancoding.com/sketch -->
    <desc>Created with Sketch.</desc>
    <defs>
        <polygon id="path-1" points="41.8170508 23.391326 41.8170508 46.6412214 0 46.6412214 0 23.391326 0 0.141430534 41.8170508 0.141430534 41.8170508 23.391326"></polygon>
        <polygon id="path-3" points="0 46.8586412 41.8170508 46.8586412 41.8170508 0.358778626 0 0.358778626"></polygon>
    </defs>
    <g id="footer" stroke="none" stroke-width="1" fill="none" fill-rule="evenodd">
        <g id="footer-2" transform="translate(-20.000000, -4481.000000)">
            <g id="Group-8" transform="translate(0.000000, 4473.000000)">
                <g id="Page-1-Copy-2" transform="translate(20.000000, 8.000000)">
                    <path d="M20.920022,46.6003206 L20.6947169,46.4912519 C10.0480729,41.3434962 5.24725932,35.0824504 2.87959831,30.5195038 C0.295886441,25.5392977 0.256377966,21.8166107 0.256377966,21.6609008 L0.256377966,0.617099237 L41.5608864,0.617099237 L41.5608864,21.6594656 C41.5608864,21.8151756 41.5317,25.5375038 38.9554627,30.5173511 C36.5952763,35.0799389 31.8008695,41.3413435 21.1453271,46.4912519 L20.920022,46.6003206 Z" id="Fill-1" fill="#FFFFFF"></path>
                    <g id="Group-5" transform="translate(0.000000, 0.217420)">
                        <mask id="mask-2" fill="white">
                            <use xlink:href="#path-1"></use>
                        </mask>
                        <g id="Clip-4"></g>
                        <path d="M1.04216949,1.19193435 L1.04216949,21.4417588 C1.04252542,21.4758427 1.0909322,25.110629 3.57854237,29.8755679 C5.86077966,34.2465679 10.7192542,40.4871634 20.9199153,45.4756214 C31.1287627,40.4850107 35.9815424,34.2454916 38.256661,29.8744916 C40.7364407,25.110629 40.7748814,21.4772779 40.7748814,21.4414 L40.7748814,1.19193435 L1.04216949,1.19193435 Z M20.9199153,46.6412931 L20.6946102,46.5322244 C10.0479661,41.3844687 4.99088136,34.8651023 2.62357627,30.3021557 C0.0398644068,25.3219496 0.000355932203,21.5992626 0,21.4435527 L0,0.141430534 L41.8170508,0.141430534 L41.8170508,21.4417588 C41.8170508,21.5978275 41.7882203,25.3201557 39.2116271,30.3000031 C36.8514407,34.8625908 31.8011186,41.382316 21.1452203,46.5322244 L20.9199153,46.6412931 Z" id="Fill-3" fill="#000000" mask="url(#mask-2)"></path>
                    </g>
                    <path d="M13.3854,8.27537252 C12.9148576,7.63997557 12.2891288,7.12907481 11.5616034,6.80438015 C11.8402983,7.21015878 12.0748576,7.70850229 12.2556712,8.27537252 L13.3854,8.27537252 Z" id="Fill-6" fill="#000000"></path>
                    <path d="M10.099861,6.50623511 L10.099861,8.27537252 L11.4360305,8.27537252 C11.0986068,7.34972366 10.6088441,6.72221985 10.099861,6.50623511" id="Fill-8" fill="#000000"></path>
                    <path d="M7.54864576,10.6408 L9.31834068,10.6408 L9.31834068,9.06325038 L7.75152712,9.06325038 C7.64261186,9.53899084 7.57142542,10.0678305 7.54864576,10.6408" id="Fill-10" fill="#000000"></path>
                    <path d="M7.98217119,8.27537252 L9.31834068,8.27537252 L9.31834068,6.50587634 C8.80935763,6.72150229 8.31923898,7.34936489 7.98217119,8.27537252" id="Fill-12" fill="#000000"></path>
                    <path d="M7.75166949,13.0067298 L9.31812712,13.0067298 L9.31812712,11.4288214 L7.54878814,11.4288214 C7.57121186,12.0017908 7.64239831,12.5306305 7.75166949,13.0067298" id="Fill-14" fill="#000000"></path>
                    <path d="M9.3182339,15.563745 L9.3182339,13.7946076 L7.98242034,13.7946076 C8.3191322,14.7206153 8.80925085,15.3481191 9.3182339,15.563745" id="Fill-16" fill="#000000"></path>
                    <path d="M6.76748136,11.4286779 L5.13837966,11.4286779 C5.18571864,11.9894489 5.33414237,12.5200824 5.56265085,13.0065863 L6.95612542,13.0065863 C6.85290508,12.5136244 6.78848136,11.984426 6.76748136,11.4286779" id="Fill-18" fill="#000000"></path>
                    <path d="M11.6664254,9.06325038 L10.0999678,9.06325038 L10.0999678,10.6408 L11.8696627,10.6408 C11.8468831,10.0678305 11.7756966,9.53899084 11.6664254,9.06325038" id="Fill-20" fill="#000000"></path>
                    <path d="M6.95580508,9.06325038 L5.56233051,9.06325038 C5.33382203,9.54939542 5.18575424,10.080029 5.13841525,10.6408 L6.76751695,10.6408 C6.78851695,10.0854107 6.85294068,9.55621221 6.95580508,9.06325038" id="Fill-22" fill="#000000"></path>
                    <path d="M6.03319322,13.7946076 C6.50373559,14.4296458 7.12910847,14.939829 7.85592203,15.2648824 C7.57758305,14.8591038 7.34337966,14.3607603 7.1625661,13.7946076 L6.03319322,13.7946076 Z" id="Fill-24" fill="#000000"></path>
                    <path d="M12.6508271,10.6408 L14.2795729,10.6408 C14.2325898,10.080029 14.084522,9.54939542 13.8560136,9.06325038 L12.4621831,9.06325038 C12.5650475,9.55621221 12.6298271,10.0854107 12.6508271,10.6408" id="Fill-26" fill="#000000"></path>
                    <path d="M7.85574407,6.80477481 C7.12893051,7.12982824 6.50355763,7.64001145 6.03301525,8.2754084 L7.16238814,8.2754084 C7.34320169,7.70889695 7.57776102,7.21091221 7.85574407,6.80477481" id="Fill-28" fill="#000000"></path>
                    <path d="M12.4620407,13.0067298 L13.8558712,13.0067298 C14.0843797,12.520226 14.2328034,11.9895924 14.2797864,11.4288214 L12.6506847,11.4288214 C12.6296847,11.9845695 12.565261,12.5134092 12.4620407,13.0067298" id="Fill-30" fill="#000000"></path>
                    <path d="M36.9172169,13.4284023 L31.9078271,16.3897611 L26.894878,13.4284023 L26.894878,7.71126489 L27.6765051,7.71126489 L27.6765051,12.9770588 L31.9078271,15.4766695 L36.1355898,12.9770588 L36.1355898,7.71126489 L36.9172169,7.71126489 L36.9172169,13.4284023 Z M28.4648949,7.21112748 C28.4648949,7.21112748 30.5495898,7.24521145 31.4860475,8.98313511 L31.4860475,14.2636389 C30.5495898,12.526074 28.4648949,12.4919901 28.4648949,12.4919901 C28.4648949,12.4919901 28.4346407,7.17704351 28.4648949,7.21112748 L28.4648949,7.21112748 Z M32.2626915,9.02834122 C33.2091153,7.29077634 35.315878,7.25705115 35.315878,7.25705115 C35.3468441,7.2226084 35.315878,12.537555 35.315878,12.537555 C35.315878,12.537555 33.2091153,12.5712802 32.2626915,14.3092038 L32.2626915,9.02834122 Z M25.4437424,17.1690282 L16.373522,17.1690282 L16.373522,16.2498374 L17.7470644,16.2498374 L17.7470644,11.7306618 L24.0694881,11.7306618 L24.0694881,16.2498374 L25.4437424,16.2498374 L25.4437424,17.1690282 Z M9.70940339,16.4500359 C6.74697966,16.4500359 4.33696271,14.0207458 4.33696271,11.0346313 C4.33696271,8.04851679 6.74697966,5.6195855 9.70940339,5.6195855 C12.6714712,5.6195855 15.0811322,8.04851679 15.0811322,11.0346313 C15.0811322,14.0207458 12.6714712,16.4500359 9.70940339,16.4500359 L9.70940339,16.4500359 Z M21.3644034,2.69338702 L21.3644034,3.21792137 C21.7619797,3.38977634 22.0424542,3.77187557 22.0424542,4.22178397 C22.0424542,4.67133359 21.7619797,5.05307405 21.3644034,5.22457023 L21.3644034,5.86211985 C21.9616576,6.08240992 23.0394203,6.60909695 23.5323864,7.67897481 C23.9936746,8.68104351 24.0780305,9.54857023 24.0826576,10.0235931 L24.5072847,10.0235931 L24.5072847,10.942784 L17.3099797,10.942784 L17.3099797,10.0235931 L17.7346068,10.0235931 C17.7392339,9.54857023 17.8239458,8.68104351 18.2852339,7.67897481 C18.7767763,6.61124962 19.854539,6.08240992 20.4525051,5.86140229 L20.4525051,5.22421145 C20.0552847,5.05271527 19.7748102,4.67133359 19.7748102,4.22178397 C19.7748102,3.77187557 20.0552847,3.39049389 20.4525051,3.21863893 L20.4525051,2.69338702 L2.55979322,2.69338702 L2.55979322,21.0983718 C2.55979322,21.0983718 2.56264068,21.9264328 2.83457288,23.3041427 C2.86589492,23.2933794 2.89757288,23.282616 2.92889492,23.2718527 C4.88509831,22.5984252 8.4152339,21.4445931 10.7529966,21.4445931 C13.0907593,21.4445931 13.9496237,22.0695855 16.1919966,22.0695855 C16.4504034,22.0695855 16.6999119,22.075326 16.9447932,22.0839366 L16.9447932,17.9511656 L24.8724712,17.9511656 L24.8724712,22.219555 C26.4606407,22.1711198 27.6434034,22.2177611 29.073539,22.4785931 C31.0535898,22.8391656 32.2701661,24.1375855 33.6771661,24.353929 C35.084878,24.5706313 36.3249458,24.2577763 37.8280475,24.3302496 C38.2153017,24.3485473 38.4972,24.3618221 38.7477763,24.3736618 C39.2564034,22.3645015 39.2574712,21.0983718 39.2574712,21.0983718 L39.2574712,2.69338702 L21.3644034,2.69338702 Z" id="Fill-32" fill="#000000"></path>
                    <path d="M11.8696983,11.4286779 L10.1000034,11.4286779 L10.1000034,13.0065863 L11.666461,13.0065863 C11.7757322,12.5308458 11.8469186,12.0020061 11.8696983,11.4286779" id="Fill-34" fill="#000000"></path>
                    <path d="M10.099861,15.5635298 C10.6088441,15.3471863 11.0986068,14.7200412 11.4356746,13.7947511 L10.099861,13.7947511 L10.099861,15.5635298 Z" id="Fill-36" fill="#000000"></path>
                    <path d="M11.5616034,15.2652412 C12.2887729,14.9405466 12.9148576,14.4300046 13.3850441,13.7946076 L12.2556712,13.7946076 C12.0745017,14.3611191 11.8402983,14.8594626 11.5616034,15.2652412" id="Fill-38" fill="#000000"></path>
                    <mask id="mask-4" fill="white">
                        <use xlink:href="#path-3"></use>
                    </mask>
                    <g id="Clip-41"></g>
                    <polygon id="Fill-40" fill="#000000" mask="url(#mask-4)" points="20.0635424 21.714 21.7535085 21.714 21.7535085 18.7662748 20.0635424 18.7662748"></polygon>
                    <path d="M19.7674068,35.6282962 C19.6385593,35.5246092 19.4378136,35.4205634 19.1032373,35.2802809 C18.8505254,35.4155405 18.6700678,35.6232733 18.6700678,35.9242885 C18.6700678,36.2877313 18.9277627,36.521655 19.3299661,36.521655 C19.6901695,36.521655 19.9375424,36.3085405 19.9375424,36.0021435 C19.9375424,35.8414107 19.8813051,35.7165557 19.7674068,35.6282962" id="Fill-42" fill="#000000" mask="url(#mask-4)"></path>
                    <path d="M19.3346288,34.7972931 C19.5613576,34.6828427 19.8293746,34.5013008 19.8293746,34.215713 C19.8293746,33.9405298 19.6286288,33.7740565 19.2833746,33.7740565 C18.9534254,33.7740565 18.7370186,33.9559573 18.7370186,34.2257588 C18.7370186,34.5274916 19.0925949,34.698629 19.3346288,34.7972931" id="Fill-43" fill="#000000" mask="url(#mask-4)"></path>
                    <path d="M22.1947576,33.7896275 C21.9936559,33.7896275 21.8391814,33.9510779 21.7413,34.2259023 C21.6587237,34.4494214 21.6227746,34.7454137 21.6227746,35.1138794 C21.6227746,35.4618947 21.6484017,35.7324137 21.6946729,35.9243603 C21.7875712,36.3294214 21.9730119,36.5009176 22.1894186,36.5009176 C22.4058254,36.5009176 22.5805881,36.3139939 22.6738424,36.0126198 C22.7407576,35.7894595 22.7717237,35.4934672 22.7717237,35.1454519 C22.7717237,34.8074824 22.7457407,34.5742763 22.6944864,34.3503985 C22.5966051,33.9456962 22.4211305,33.7896275 22.1947576,33.7896275" id="Fill-44" fill="#000000" mask="url(#mask-4)"></path>
                    <path d="M25.0692661,36.9267878 C24.1627068,36.9267878 23.8740458,35.8619328 23.8740458,35.1192611 C23.8740458,34.0960244 24.3894356,33.3587344 25.074961,33.3587344 C25.9971814,33.3587344 26.2854864,34.381971 26.2854864,35.1346885 C26.2854864,36.2099481 25.7910966,36.9267878 25.0692661,36.9267878 L25.0692661,36.9267878 Z M22.1844356,36.9267878 C21.2775203,36.9267878 20.9888593,35.8619328 20.9888593,35.1192611 C20.9888593,34.0960244 21.5042492,33.3587344 22.1894186,33.3587344 C23.111639,33.3587344 23.4003,34.381971 23.4003,35.1346885 C23.4003,36.2099481 22.9055542,36.9267878 22.1844356,36.9267878 L22.1844356,36.9267878 Z M19.2729102,36.9475969 C18.680639,36.9475969 18.0570458,36.6516046 18.0570458,35.9656198 C18.0570458,35.5454901 18.3353847,35.2075206 18.7162322,35.0726198 C18.4023,34.9431008 18.1652492,34.6259405 18.1652492,34.2779252 C18.1652492,33.6184901 18.7731814,33.3587344 19.3344864,33.3587344 C19.9840627,33.3587344 20.4325373,33.7067496 20.4325373,34.2154977 C20.4325373,34.6413679 20.1025881,34.8803145 19.7466559,35.0152153 C20.2467407,35.2229481 20.5610288,35.4722992 20.5610288,35.9035511 C20.5610288,36.5737496 19.8655373,36.9475969 19.2729102,36.9475969 L19.2729102,36.9475969 Z M17.556961,36.8489328 L15.9239441,36.8489328 L15.9239441,36.386826 L16.5215542,36.386826 L16.5215542,34.0805969 C16.4703,34.1121695 16.3101305,34.2154977 16.1713169,34.2829481 C16.0321475,34.3503985 15.8413678,34.4336351 15.7794356,34.4544443 L15.640622,34.1480473 L16.6763847,33.4157802 L17.0778763,33.4157802 L17.0778763,36.386826 L17.556961,36.386826 L17.556961,36.8489328 Z M26.1851136,29.1104366 L26.1851136,29.1283756 L15.6505881,29.1283756 L8.01691017,33.949284 C10.7362322,37.3017115 14.8080966,40.7972916 20.911978,43.7439405 C27.0297407,40.7919099 31.1048085,37.289513 33.8212831,33.9320626 L26.1851136,29.1104366 Z" id="Fill-45" fill="#000000" mask="url(#mask-4)"></path>
                    <path d="M25.0796593,33.7896275 C24.8785576,33.7896275 24.7240831,33.9510779 24.6262017,34.2259023 C24.5439814,34.4494214 24.5076763,34.7454137 24.5076763,35.1138794 C24.5076763,35.4618947 24.5333034,35.7324137 24.5799305,35.9243603 C24.6724729,36.3294214 24.8579136,36.5009176 25.0746763,36.5009176 C25.2907271,36.5009176 25.4662017,36.3139939 25.5587441,36.0126198 C25.6260153,35.7894595 25.6566254,35.4934672 25.6566254,35.1454519 C25.6566254,34.8074824 25.6309983,34.5742763 25.5793881,34.3503985 C25.4815068,33.9456962 25.3063881,33.7896275 25.0796593,33.7896275" id="Fill-46" fill="#000000" mask="url(#mask-4)"></path>
                    <polygon id="Fill-47" fill="#000000" mask="url(#mask-4)" points="15.4698814 23.788458 26.3475254 23.788458 26.3475254 23.0005802 15.4698814 23.0005802"></polygon>
                    <path d="M17.5944407,27.2872672 L24.2226102,27.2872672 L24.2226102,25.6910611 L17.5944407,25.6910611 L17.5944407,27.2872672 Z M16.8128136,28.075145 L25.0042373,28.075145 L25.0042373,24.9031832 L16.8128136,24.9031832 L16.8128136,28.075145 Z" id="Fill-48" fill="#000000" mask="url(#mask-4)"></path>
                    <polygon id="Fill-49" fill="#000000" mask="url(#mask-4)" points="20.0635424 15.2506031 21.7535085 15.2506031 21.7535085 12.605687 20.0635424 12.605687"></polygon>
                    <polygon id="Fill-50" fill="#000000" mask="url(#mask-4)" points="18.632339 15.2491679 19.1534237 15.2491679 19.1534237 12.6096336 18.632339 12.6096336"></polygon>
                    <polygon id="Fill-51" fill="#000000" mask="url(#mask-4)" points="22.6632712 15.2491679 23.1843559 15.2491679 23.1843559 12.6096336 22.6632712 12.6096336"></polygon>
                    <path d="M21.4049797,4.22235802 C21.4049797,4.48354885 21.182878,4.69522824 20.9088102,4.69522824 C20.6343864,4.69522824 20.4122847,4.48354885 20.4122847,4.22235802 C20.4122847,3.95973206 20.6343864,3.74733511 20.9088102,3.74733511 C21.182878,3.74733511 21.4049797,3.95973206 21.4049797,4.22235802" id="Fill-52" fill="#000000" mask="url(#mask-4)"></path>
                    <path d="M15.6320797,26.2729641 L6.58891017,32.0209565 C6.78146949,32.3047504 6.98328305,32.5903382 7.19470678,32.8777198 L15.6320797,27.5150557 L15.6320797,26.2729641 Z" id="Fill-53" fill="#000000" mask="url(#mask-4)"></path>
                    <path d="M26.1844373,27.5594366 L34.606861,32.924971 C34.8186407,32.6379481 35.0211661,32.3523603 35.2140814,32.0689252 L26.1844373,26.3169863 L26.1844373,27.5594366 Z" id="Fill-54" fill="#000000" mask="url(#mask-4)"></path>
                </g>
            </g>
        </g>
    </g>
</svg>
