<?xml version="1.0" encoding="UTF-8" standalone="no"?>
<svg width="186px" height="45px" viewBox="0 0 186 45" version="1.1" xmlns="http://www.w3.org/2000/svg" xmlns:xlink="http://www.w3.org/1999/xlink">
    <!-- Generator: Sketch 44.1 (41455) - http://www.bohemiancoding.com/sketch -->
    <title>Page 1 Copy 17</title>
    <desc>Created with Sketch.</desc>
    <defs>
        <polygon id="path-1" points="9.09795409 0.173254843 0.122051308 0.173254843 0.122051308 27.4075059 9.09795409 27.4075059 9.09795409 0.173254843"></polygon>
        <polygon id="path-3" points="15.3470417 10.8004472 0 10.8004472 0 0.0308456296 15.3470417 0.0308456296 15.3470417 10.8004472"></polygon>
        <polygon id="path-5" points="0.227780475 10.8004472 13.3663916 10.8004472 13.3663916 0.0306441705 0.227780475 0.0306441705"></polygon>
    </defs>
    <g id="nav" stroke="none" stroke-width="1" fill="none" fill-rule="evenodd">
        <g id="Mobile" transform="translate(-20.000000, -8.000000)">
            <g id="Page-1-Copy-17" transform="translate(20.000000, 8.000000)">
                <path d="M35.6728194,27.9992137 C33.2138611,27.9992137 32.0981667,27.7776087 29.7882361,27.7776087 C27.4783056,27.7776087 26.5116389,27.9992137 24.0526806,27.9992137 C23.8674028,27.9992137 23.7163611,27.7776087 23.7163611,27.4774346 C23.7163611,27.1812897 23.8291389,26.9939327 24.0144167,26.9556555 C27.5910833,26.5466935 27.814625,25.7267549 27.778375,23.8269954 L26.9949722,5.75812694 L18.0190694,28.2973732 C17.9445556,28.4847302 17.7572639,28.5955327 17.4974722,28.5955327 C17.1994167,28.5955327 17.0141389,28.4484676 16.975875,28.2973732 L8.52156944,6.65059084 L7.18233333,23.8269954 C7.03129167,25.7267549 7.478375,26.5466935 11.0550417,26.9556555 C11.2403194,26.9939327 11.3148333,27.1812897 11.3148333,27.4774346 C11.3148333,27.7776087 11.1275417,27.9992137 10.9805278,27.9992137 C9.07941667,27.9992137 7.66566667,27.7776087 5.91559722,27.7776087 C4.089,27.7776087 2.7115,27.9992137 0.997680556,27.9992137 C0.848652778,27.9992137 0.737888889,27.7776087 0.737888889,27.4774346 C0.737888889,27.1812897 0.925180556,26.9939327 1.07219444,26.9556555 C4.723375,26.5466935 5.20670833,25.7267549 5.35573611,23.8269954 L7.29309722,6.27990606 C7.478375,4.34186933 6.92052778,3.55819335 3.345875,3.11095411 C3.19684722,3.11095411 3.08406944,2.88733448 3.08406944,2.59118958 C3.08406944,2.32929272 3.27136111,2.06941046 3.418375,2.06941046 C4.723375,2.06941046 5.91559722,2.29101549 6.95677778,2.29101549 C8.26177778,2.29101549 9.41573611,2.06941046 10.7569861,2.06941046 L18.7642083,22.8217144 L27.0312222,2.06941046 C28.48525,2.06941046 29.4156667,2.29101549 30.7206667,2.29101549 C32.2834444,2.29101549 32.9158056,2.06941046 34.5551111,2.06941046 C34.7424028,2.06941046 34.8914306,2.32929272 34.8914306,2.59118958 C34.8914306,2.88733448 34.7786528,3.11095411 34.593375,3.11095411 C31.0167083,3.55819335 30.7931667,4.34186933 30.8314306,6.27990606 L31.6873333,23.8269954 C31.7618472,25.7267549 32.0236528,26.5466935 35.6728194,26.9556555 C35.8218472,26.9939327 35.970875,27.1812897 35.970875,27.4774346 C35.970875,27.7776087 35.8580972,27.9992137 35.6728194,27.9992137" id="Fill-1" fill="#FFFFFF"></path>
                <path d="M41.7183125,6.87562067 C40.6388681,6.87562067 39.7829653,5.98114218 39.7829653,4.93758394 C39.7829653,3.85776306 40.6388681,2.99954721 41.7183125,2.99954721 C42.7977569,2.99954721 43.6536597,3.85776306 43.6536597,4.93758394 C43.6536597,5.98114218 42.7977569,6.87562067 41.7183125,6.87562067 M45.9635903,27.9986094 C44.4008125,27.9986094 43.5428958,27.7770043 41.7565764,27.7770043 C39.9682431,27.7770043 39.1485903,27.9986094 37.5837986,27.9986094 C37.3985208,27.9986094 37.2857431,27.7770043 37.2857431,27.4788448 C37.2857431,27.1806853 37.3985208,26.9933283 37.5837986,26.9570657 C39.7447014,26.6971834 40.0790069,26.211667 40.0790069,23.826391 L40.0790069,16.9344745 C40.0790069,14.9601751 39.7829653,14.5512131 38.0308819,14.3638561 C37.8456042,14.3638561 37.7328264,14.1402365 37.7328264,13.8803543 C37.7328264,13.6184574 37.8456042,13.433115 38.0308819,13.433115 C39.7829653,12.9858758 41.4585208,12.4258194 42.6869931,11.4950783 C42.8360208,11.4205384 42.9105347,11.1989334 43.2085903,11.1989334 C43.5066458,11.1989334 43.7301875,11.3459985 43.7301875,11.4950783 C43.6174097,13.0584011 43.4321319,16.039996 43.4321319,17.9780327 L43.4321319,23.826391 C43.4321319,26.211667 43.7664375,26.6971834 45.9635903,26.9570657 C46.1126181,26.9933283 46.2616458,27.1806853 46.2616458,27.4788448 C46.2616458,27.7770043 46.1126181,27.9986094 45.9635903,27.9986094" id="Fill-3" fill="#FFFFFF"></path>
                <path d="M60.3065069,15.2212662 C60.3065069,13.9540883 58.5564375,12.5378307 56.7318542,12.5378307 C53.0061597,12.5378307 51.2923403,15.3340833 51.2923403,20.1751459 C51.2923403,23.7167972 52.8953958,27.1818941 56.0229653,27.1818941 C57.9220625,27.1818941 59.1142847,26.2108611 60.3065069,24.7583409 L60.3065069,15.2212662 Z M65.7077569,27.2181567 C64.3302569,27.3652219 62.1310903,27.9615409 61.0516458,28.4853346 C60.8643542,28.5961371 60.6428264,28.7069396 60.4555347,28.7069396 C60.2319931,28.7069396 60.1574792,28.5578599 60.1574792,28.4107947 L60.3065069,26.3982181 C59.1887986,27.6271187 57.6622708,28.5578599 55.2778264,28.5578599 C50.9580347,28.5578599 47.5324097,24.7220782 47.5324097,20.1388833 C47.5324097,14.4013275 51.8159514,11.3451927 56.3210208,11.3451927 C57.6240069,11.3451927 59.0397708,11.7561693 60.3065069,12.6869104 L60.3065069,6.46383823 C60.3065069,4.45327622 60.0084514,4.08057685 58.2201181,3.89523446 C58.0731042,3.85695723 57.9220625,3.67161484 57.9220625,3.41173257 C57.9220625,3.14983572 58.0731042,2.9242015 58.2201181,2.9242015 C59.9701875,2.51523949 61.6477569,1.9189205 62.8762292,1.0264566 C63.0252569,0.913639491 63.0997708,0.728297101 63.3978264,0.728297101 C63.6958819,0.728297101 63.9194236,0.87737685 63.9194236,1.0264566 C63.8066458,2.55351672 63.6213681,5.57137433 63.6213681,7.50941106 L63.6213681,23.9384023 C63.6213681,25.7636219 64.0322014,26.063796 65.7077569,26.285401 C65.8567847,26.285401 66.0058125,26.5110352 66.0058125,26.7689029 C66.0058125,27.069077 65.8930347,27.1818941 65.7077569,27.2181567 L65.7077569,27.2181567 Z" id="Fill-5" fill="#FFFFFF"></path>
                <path d="M80.4995694,15.2212662 C80.4995694,13.9540883 78.7495,12.5378307 76.9249167,12.5378307 C73.1992222,12.5378307 71.4854028,15.3340833 71.4854028,20.1751459 C71.4854028,23.7167972 73.0884583,27.1818941 76.2180417,27.1818941 C78.115125,27.1818941 79.3073472,26.2108611 80.4995694,24.7583409 L80.4995694,15.2212662 Z M85.9008194,27.2181567 C84.5233194,27.3652219 82.3241528,27.9615409 81.2447083,28.4853346 C81.0574167,28.5961371 80.8358889,28.7069396 80.6485972,28.7069396 C80.4250556,28.7069396 80.3505417,28.5578599 80.3505417,28.4107947 L80.4995694,26.3982181 C79.3818611,27.6271187 77.8553333,28.5578599 75.4708889,28.5578599 C71.1510972,28.5578599 67.7254722,24.7220782 67.7254722,20.1388833 C67.7254722,14.4013275 72.0090139,11.3451927 76.5140833,11.3451927 C77.8170694,11.3451927 79.2328333,11.7561693 80.4995694,12.6869104 L80.4995694,6.46383823 C80.4995694,4.45327622 80.2015139,4.08057685 78.4131806,3.89523446 C78.2661667,3.85695723 78.115125,3.67161484 78.115125,3.41173257 C78.115125,3.14983572 78.2661667,2.9242015 78.4131806,2.9242015 C80.16325,2.51523949 81.8408194,1.9189205 83.0692917,1.0264566 C83.2183194,0.913639491 83.2928333,0.728297101 83.5908889,0.728297101 C83.8889444,0.728297101 84.1124861,0.87737685 84.1124861,1.0264566 C83.9997083,2.55351672 83.8144306,5.57137433 83.8144306,7.50941106 L83.8144306,23.9384023 C83.8144306,25.7636219 84.2252639,26.063796 85.9008194,26.285401 C86.0478333,26.285401 86.198875,26.5110352 86.198875,26.7689029 C86.198875,27.069077 86.0860972,27.1818941 85.9008194,27.2181567 L85.9008194,27.2181567 Z" id="Fill-7" fill="#FFFFFF"></path>
                <g id="Group-11" transform="translate(87.199164, 0.554438)">
                    <mask id="mask-2" fill="white">
                        <use xlink:href="#path-1"></use>
                    </mask>
                    <g id="Clip-10"></g>
                    <path d="M8.79989853,27.4075059 C7.23510686,27.4075059 6.37920409,27.2221635 4.59087075,27.2221635 C2.84080131,27.2221635 1.98489853,27.4075059 0.420106864,27.4075059 C0.271079086,27.4075059 0.122051308,27.1859009 0.122051308,26.8857268 C0.122051308,26.6258445 0.271079086,26.4022249 0.420106864,26.3639477 C2.58100964,26.1423426 2.95357909,25.6185489 2.95357909,23.2352875 L2.95357909,5.90980327 C2.95357909,3.89924126 2.65552353,3.52654189 0.867190197,3.3411995 C0.718162419,3.30292226 0.569134641,3.11556528 0.569134641,2.85568302 C0.569134641,2.59580075 0.718162419,2.40844377 0.867190197,2.40844377 C2.61725964,1.96120453 4.2928152,1.40316277 5.52330131,0.472421635 C5.67232909,0.397881761 5.74482909,0.172247547 6.04288464,0.172247547 C6.3409402,0.172247547 6.56649575,0.323341887 6.56649575,0.472421635 C6.45371797,2.0357444 6.2684402,5.01733937 6.2684402,6.9553761 L6.2684402,23.2352875 C6.2684402,25.6185489 6.63899575,26.1423426 8.79989853,26.3639477 C8.94892631,26.4022249 9.09795409,26.6258445 9.09795409,26.8857268 C9.09795409,27.1859009 8.94892631,27.4075059 8.79989853,27.4075059" id="Fill-9" fill="#FFFFFF" mask="url(#mask-2)"></path>
                </g>
                <path d="M105.313299,12.5376292 C103.22691,12.5376292 101.84941,14.5502058 101.402326,16.8972046 L106.580035,16.7481248 C108.440868,16.7098476 108.738924,16.3754255 108.738924,15.7791065 C108.738924,13.9921641 107.435937,12.5376292 105.313299,12.5376292 M111.457674,17.9407628 L101.253299,17.9407628 C101.178785,18.6116217 101.142535,19.3187432 101.142535,20.0278793 C101.142535,24.2000977 103.301424,26.2489369 106.616285,26.2489369 C108.589896,26.2489369 110.488993,25.0180217 111.457674,23.7508438 C111.568438,23.567516 112.015521,23.8636609 112.015521,24.38544 C112.015521,24.4982572 111.981285,24.572797 111.904757,24.6835995 C110.714549,26.4342793 108.477118,28.5576584 105.313299,28.5576584 C100.806215,28.5576584 97.3805903,24.7964166 97.3805903,20.0641419 C97.3805903,15.5554868 100.397396,11.3449912 105.313299,11.3449912 C109.782118,11.3449912 112.128299,14.9591678 112.128299,17.4189837 C112.128299,17.7554204 111.868507,17.9407628 111.457674,17.9407628" id="Fill-12" fill="#FFFFFF"></path>
                <path d="M122.37416,12.7245833 C120.55159,12.7245833 118.539715,14.4390004 118.539715,15.7041637 L118.539715,24.3125118 C118.539715,25.6904922 121.220201,27.3283549 122.823257,27.3283549 C126.323396,27.3283549 127.551868,23.5671131 127.551868,20.0274764 C127.551868,15.7807181 125.876313,12.7245833 122.37416,12.7245833 M123.268326,28.5572555 C120.102493,28.5572555 119.806451,27.2920922 117.830826,27.2920922 C116.974924,27.2920922 116.268049,27.7393315 115.967979,28.4847302 C115.931729,28.6317954 115.708188,28.7083498 115.52291,28.7083498 C115.22284,28.7083498 115.037563,28.5955327 115.037563,28.4101903 C115.11409,27.6265144 115.188604,26.1739941 115.188604,24.646934 L115.188604,6.46524845 C115.188604,4.49094908 114.888535,4.07997247 113.138465,3.89463008 C112.951174,3.89463008 112.84041,3.7072731 112.84041,3.44940543 C112.84041,3.18750857 112.951174,2.92561172 113.138465,2.92561172 C114.888535,2.47837247 116.56409,1.92033071 117.794576,1.02585222 C117.90534,0.915049705 118.018118,0.727692724 118.31416,0.727692724 C118.614229,0.727692724 118.835757,0.840509831 118.835757,1.02585222 C118.724993,2.55291235 118.539715,5.60904719 118.539715,7.54708392 L118.539715,13.1335453 C119.61916,12.0537244 121.256451,11.3828656 122.823257,11.3828656 C127.328326,11.3828656 131.311799,14.1408409 131.311799,19.8783966 C131.311799,24.4233144 127.551868,28.5572555 123.268326,28.5572555" id="Fill-14" fill="#FFFFFF"></path>
                <path d="M150.836049,27.2183582 C149.271257,27.3654233 147.295632,27.6655974 146.177924,28.485536 C146.069174,28.5963386 145.843618,28.7071411 145.65834,28.7071411 C145.398549,28.7071411 145.285771,28.5580613 145.285771,28.4109962 L145.434799,26.0639974 C143.831743,27.5145031 142.156188,28.5580613 140.444382,28.5580613 C136.682438,28.5580613 135.043132,26.1002601 135.043132,23.193205 L135.043132,16.2267486 C135.043132,13.8414726 134.559799,13.396248 132.398896,13.4707879 C132.213618,13.5070505 132.10084,13.2834309 132.10084,13.021534 C132.10084,12.7253891 132.213618,12.425215 132.398896,12.425215 C133.81466,12.425215 136.384382,11.9799904 137.985424,11.5690138 C138.208965,11.5327511 138.394243,11.7563708 138.394243,12.0545303 L138.394243,22.3007411 C138.394243,24.6840025 139.103132,26.3238797 141.711118,26.3238797 C143.386674,26.3238797 144.35334,25.6530208 145.434799,24.4603828 L145.434799,16.2267486 C145.434799,13.8414726 144.913201,13.396248 142.752299,13.4707879 C142.567021,13.5070505 142.456257,13.2834309 142.456257,13.021534 C142.456257,12.7253891 142.567021,12.425215 142.752299,12.425215 C144.206326,12.425215 146.737785,11.9799904 148.37709,11.5690138 C148.562368,11.5327511 148.74966,11.7563708 148.74966,12.0545303 L148.74966,23.9386037 C148.74966,25.7638233 149.158479,26.0639974 150.836049,26.2856025 C150.983063,26.2856025 151.13209,26.5092221 151.13209,26.7691043 C151.13209,27.0692784 151.021326,27.180081 150.836049,27.2183582" id="Fill-16" fill="#FFFFFF"></path>
                <path d="M163.839931,14.9968407 C162.351667,14.9968407 162.164375,14.0298369 161.121181,14.0298369 C160.041736,14.0298369 159.371111,14.6241413 158.625972,15.4440799 L158.625972,23.8267939 C158.625972,26.2100553 159.409375,26.6975864 161.568264,26.9574686 C161.755556,26.9937313 161.868333,27.1810882 161.868333,27.4772332 C161.868333,27.7774072 161.755556,27.9990123 161.568264,27.9990123 C160.005486,27.9990123 158.73875,27.7774072 156.950417,27.7774072 C155.162083,27.7774072 154.306181,27.9990123 152.741389,27.9990123 C152.592361,27.9990123 152.445347,27.7774072 152.445347,27.4772332 C152.445347,27.1810882 152.592361,26.9937313 152.741389,26.9574686 C154.938542,26.6975864 155.274861,26.2100553 155.274861,23.8267939 L155.274861,16.9348774 C155.274861,14.9585635 154.976806,14.5496015 153.188472,14.3642591 C153.039444,14.3642591 152.890417,14.1406394 152.890417,13.8787426 C152.890417,13.6168457 153.039444,13.4335179 153.188472,13.4335179 C154.938542,12.9862787 156.503333,12.4262223 157.733819,11.4954812 C157.842569,11.4209413 157.955347,11.1973217 158.255417,11.1973217 C158.513194,11.1973217 158.775,11.3464015 158.775,11.4954812 L158.625972,13.8424799 C160.190764,12.3899597 161.606528,11.3464015 163.318333,11.3464015 C164.510556,11.3464015 165.404722,12.2408799 165.404722,13.2078837 C165.404722,14.1789167 164.734097,14.9968407 163.839931,14.9968407" id="Fill-18" fill="#FFFFFF"></path>
                <path d="M185.148889,12.9862787 C183.360556,13.1716211 182.728194,13.8424799 181.685,16.1149388 L172.896389,35.1145484 C171.851181,37.2782193 170.622708,38.1706832 169.46875,38.1706832 C168.165764,38.1706832 167.384375,37.3890218 167.384375,36.3454636 C167.384375,35.3019054 168.129514,34.4457041 169.46875,34.4457041 C170.252153,34.4457041 170.622708,34.8929433 171.033542,34.8929433 C171.555139,34.8929433 172.002222,34.2603617 172.634583,32.8058269 L174.90625,27.7774072 L170.101111,16.1149388 C169.321736,14.1789167 168.651111,13.2078837 166.824514,12.9862787 C166.639236,12.9480015 166.526458,12.7243818 166.526458,12.462485 C166.526458,12.1663401 166.639236,11.9407059 166.824514,11.9407059 C168.389306,11.9407059 169.059931,12.1663401 170.84625,12.1663401 C172.634583,12.1663401 173.526736,11.9407059 175.093542,11.9407059 C175.280833,11.9407059 175.389583,12.1663401 175.389583,12.462485 C175.389583,12.7243818 175.280833,12.9480015 175.093542,12.9862787 C173.788542,13.1333438 173.117917,13.3952407 173.117917,14.1043768 C173.117917,14.5496015 173.305208,15.1841977 173.677778,16.1149388 L176.694583,23.9013338 L180.009444,16.1149388 C180.194722,15.6676996 180.456528,14.9968407 180.456528,14.3642591 C180.456528,13.655123 180.009444,13.1333438 178.668194,12.9862787 C178.519167,12.9480015 178.370139,12.7243818 178.370139,12.462485 C178.370139,12.1663401 178.519167,11.9407059 178.668194,11.9407059 C180.232986,11.9407059 180.569306,12.1663401 182.057569,12.1663401 C182.915486,12.1663401 183.845903,11.9407059 185.148889,11.9407059 C185.297917,11.9407059 185.444931,12.1663401 185.444931,12.462485 C185.444931,12.7243818 185.297917,12.9480015 185.148889,12.9862787" id="Fill-20" fill="#FFFFFF"></path>
                <g id="Group-24" transform="translate(0.000000, 34.074997)">
                    <mask id="mask-4" fill="white">
                        <use xlink:href="#path-3"></use>
                    </mask>
                    <g id="Clip-23"></g>
                    <path d="M15.1798889,0.455924372 C13.7117639,0.62112085 13.4862083,0.953528397 13.3351667,1.74123355 L12.3523889,8.86482802 C12.2456528,9.63641645 12.2315556,9.96882399 13.7117639,10.1360351 C13.7741944,10.1501372 13.8044028,10.1944582 13.8044028,10.2710127 C13.8044028,10.4059903 13.7117639,10.5590992 13.6231528,10.5590992 C12.6242639,10.5590992 12.2154444,10.4684426 11.2789861,10.4684426 C10.3425278,10.4684426 9.91759722,10.5590992 8.92072222,10.5590992 C8.87440278,10.5590992 8.83009722,10.5429825 8.83009722,10.422107 C8.83009722,10.2851148 8.92072222,10.1501372 9.01134722,10.1360351 C10.3425278,9.98292613 10.6285,9.71095632 10.7493333,8.86482802 L11.8086389,1.60424135 L6.75780556,10.6779601 C6.7135,10.7545146 6.63697222,10.8008502 6.51613889,10.8008502 C6.41141667,10.8008502 6.33488889,10.7383978 6.33488889,10.6779601 L5.11044444,1.89232789 L2.91933333,8.86482802 C2.66155556,9.63641645 2.76627778,9.96882399 4.23238889,10.1360351 C4.27870833,10.1501372 4.30891667,10.1944582 4.30891667,10.2710127 C4.30891667,10.4059903 4.21829167,10.5590992 4.12766667,10.5590992 C3.35634722,10.5590992 2.82669444,10.4684426 2.10169444,10.4684426 C1.36058333,10.4684426 0.770513889,10.5590992 0.0757222222,10.5590992 C0.0314166667,10.5590992 -0.000805555555,10.5429825 -0.000805555555,10.422107 C-0.000805555555,10.2851148 0.0757222222,10.1501372 0.182458333,10.1360351 C1.64856944,9.96882399 1.92044444,9.63641645 2.17620833,8.86482802 L4.65731944,1.74123355 C4.89898611,0.953528397 4.73384722,0.60500412 3.28183333,0.455924372 C3.22141667,0.455924372 3.20530556,0.395486636 3.20530556,0.333034309 C3.20530556,0.198056699 3.28183333,0.0308456296 3.38655556,0.0308456296 C3.76516667,0.0308456296 4.44384722,0.121502233 4.86877778,0.121502233 C5.39843056,0.121502233 5.85155556,0.0308456296 6.39530556,0.0308456296 L7.49891667,8.2745528 L12.1409306,0.0308456296 C12.731,0.0308456296 13.1075972,0.121502233 13.63725,0.121502233 C14.2575278,0.121502233 14.6039167,0.0308456296 15.2705139,0.0308456296 C15.3148194,0.0308456296 15.3470417,0.0630790887 15.3470417,0.181939969 C15.3470417,0.304830032 15.2846111,0.455924372 15.1798889,0.455924372" id="Fill-22" fill="#FFFFFF" mask="url(#mask-4)"></path>
                </g>
                <path d="M30.4709444,39.9294213 L33.0567778,39.9294213 L33.3890694,36.2709237 L30.4709444,39.9294213 Z M35.6728194,44.6334918 C34.6739306,44.6334918 34.3416389,44.5428352 33.4937917,44.5428352 C32.5573333,44.5428352 32.0276806,44.6334918 31.0308056,44.6334918 C30.9844861,44.6334918 30.9542778,44.617375 30.9542778,44.4985142 C30.9542778,44.3595074 31.0308056,44.2245298 31.1355278,44.2104276 C32.4667083,44.1338732 32.6942778,43.7853489 32.7687917,42.9090017 L33.0104583,40.4129232 L30.0923333,40.4129232 L28.2335139,42.7579074 C27.9455278,43.1366505 27.7803889,43.4529413 27.7803889,43.6946923 C27.7803889,43.9988955 28.0663611,44.1781942 28.6705278,44.2104276 C28.7329583,44.2104276 28.7470556,44.2688508 28.7470556,44.3454052 C28.7470556,44.4823974 28.6705278,44.6334918 28.5658056,44.6334918 C27.6897639,44.6334918 27.5065,44.5428352 26.6767778,44.5428352 C26.0101806,44.5428352 25.4060139,44.6334918 24.6951111,44.6334918 C24.6649028,44.6334918 24.6205972,44.617375 24.6205972,44.4985142 C24.6205972,44.3595074 24.6951111,44.2245298 24.7857361,44.2104276 C26.0262917,44.1036543 26.7210833,43.5597147 27.4480972,42.6974696 L34.6739306,34.002494 C34.7343472,33.9259396 34.7947639,33.879604 34.9155972,33.879604 C35.0364306,33.879604 35.0968472,33.9541438 35.0968472,34.0306983 L34.3416389,42.804243 C34.2510139,43.8619033 34.5974028,44.0734354 35.7614306,44.2104276 C35.8238611,44.2245298 35.8379583,44.2688508 35.8379583,44.3454052 C35.8379583,44.4823974 35.7775417,44.6334918 35.6728194,44.6334918 L35.6728194,44.6334918 Z" id="Fill-25" fill="#FFFFFF"></path>
                <path d="M58.0565903,40.2009882 C56.9670764,40.3238783 56.6045764,40.4588559 56.3629097,41.4721953 L56.0910347,42.592308 C55.9399931,43.2571231 55.8332569,43.907836 55.8795764,44.193908 C54.6994375,44.6330888 53.7166597,44.8748398 51.9323542,44.8748398 C49.3928403,44.8748398 47.6407569,43.2571231 47.6407569,40.8073802 C47.6407569,36.9957736 50.9515903,33.8792011 55.3499236,33.8792011 C55.9702014,33.8792011 56.9670764,33.9416534 57.4222153,34.0302954 C57.3315903,34.6971251 57.2409653,35.9824343 57.1946458,36.8003583 C57.1946458,36.8748982 57.1040208,36.9353359 56.9831875,36.9353359 C56.8623542,36.9353359 56.7717292,36.8890003 56.7717292,36.8003583 C56.7717292,35.1342914 55.9702014,34.485593 54.5947153,34.485593 C51.9021458,34.485593 49.1974931,37.3886189 49.1974931,41.5930707 C49.1974931,43.1503497 50.2708958,44.3913379 52.1438125,44.3913379 C53.4911042,44.3913379 54.1999931,44.0589304 54.3671458,43.3921007 L54.8504792,41.3069988 C54.8806875,41.2002255 54.8967986,41.1095688 54.8967986,41.0189122 C54.8967986,40.4890748 54.3832569,40.3077616 53.1567986,40.2009882 C53.1124931,40.1868861 53.0822847,40.1264483 53.0822847,40.0660106 C53.0822847,39.9290184 53.1567986,39.7779241 53.2635347,39.7779241 C54.2624236,39.7779241 54.8504792,39.8544785 55.7889514,39.8544785 C56.7254097,39.8544785 57.1644375,39.7779241 58.1633264,39.7779241 C58.1915208,39.7779241 58.2378403,39.7940408 58.2378403,39.9129017 C58.2378403,40.0357917 58.1472153,40.1868861 58.0565903,40.2009882" id="Fill-27" fill="#FFFFFF"></path>
                <path d="M73.2759514,39.9294213 L75.8617847,39.9294213 L76.1940764,36.2709237 L73.2759514,39.9294213 Z M78.4778264,44.6334918 C77.4789375,44.6334918 77.1466458,44.5428352 76.2987986,44.5428352 C75.3623403,44.5428352 74.8326875,44.6334918 73.8358125,44.6334918 C73.7894931,44.6334918 73.7592847,44.617375 73.7592847,44.4985142 C73.7592847,44.3595074 73.8358125,44.2245298 73.9405347,44.2104276 C75.2717153,44.1338732 75.4992847,43.7853489 75.5737986,42.9090017 L75.8154653,40.4129232 L72.8973403,40.4129232 L71.0385208,42.7579074 C70.7505347,43.1366505 70.5853958,43.4529413 70.5853958,43.6946923 C70.5853958,43.9988955 70.8713681,44.1781942 71.4755347,44.2104276 C71.5379653,44.2104276 71.5520625,44.2688508 71.5520625,44.3454052 C71.5520625,44.4823974 71.4755347,44.6334918 71.3708125,44.6334918 C70.4947708,44.6334918 70.3115069,44.5428352 69.4817847,44.5428352 C68.8151875,44.5428352 68.2110208,44.6334918 67.5001181,44.6334918 C67.4699097,44.6334918 67.4256042,44.617375 67.4256042,44.4985142 C67.4256042,44.3595074 67.5001181,44.2245298 67.5907431,44.2104276 C68.8312986,44.1036543 69.5260903,43.5597147 70.2531042,42.6974696 L77.4789375,34.002494 C77.5393542,33.9259396 77.5997708,33.879604 77.7206042,33.879604 C77.8414375,33.879604 77.9018542,33.9541438 77.9018542,34.0306983 L77.1466458,42.804243 C77.0560208,43.8619033 77.4024097,44.0734354 78.5664375,44.2104276 C78.6288681,44.2245298 78.6429653,44.2688508 78.6429653,44.3454052 C78.6429653,44.4823974 78.5825486,44.6334918 78.4778264,44.6334918 L78.4778264,44.6334918 Z" id="Fill-29" fill="#FFFFFF"></path>
                <path d="M100.407264,34.4384516 L92.4242083,44.0581245 L95.6907361,44.0581245 C97.6703889,44.0581245 98.6853889,43.1656606 99.31775,41.7453738 C99.3499722,41.6527026 99.4103889,41.6224838 99.5151111,41.6224838 C99.7124722,41.6224838 99.7728889,41.7131404 99.7265694,41.8199137 C99.3801806,42.7425965 98.95525,43.7720526 98.7437917,44.6947353 C98.2161528,44.5718453 97.0501111,44.543641 94.6314306,44.543641 C92.2268472,44.543641 91.0487222,44.5718453 90.5351806,44.6786186 C90.4143472,44.7088375 90.3076111,44.5557285 90.3076111,44.4066488 C90.3076111,44.3764299 90.3237222,44.3300943 90.3378194,44.3018901 L98.3369861,34.6802025 L95.6001111,34.6802025 C94.0715694,34.6802025 93.0142778,35.3309155 92.394,36.7532168 C92.3496944,36.8438735 92.303375,36.8740923 92.21275,36.8740923 C92.0153889,36.8740923 91.940875,36.7834357 91.9710833,36.6766624 C92.3194861,35.7539796 92.6215694,34.9703036 92.8330278,34.0476209 C93.3626806,34.1664818 94.0574722,34.1967006 96.4620556,34.1967006 C98.8807361,34.1967006 99.7124722,34.1825985 100.226014,34.061723 C100.346847,34.0315041 100.451569,34.1825985 100.451569,34.3336928 C100.451569,34.3639117 100.437472,34.4082327 100.407264,34.4384516" id="Fill-31" fill="#FFFFFF"></path>
                <path d="M117.835056,34.5309213 C116.338736,34.7122345 116.278319,35.0285253 116.097069,35.8162305 L114.403389,42.939825 C114.357069,43.1352403 114.31075,43.3024514 114.31075,43.4535457 C114.31075,43.8766099 114.60075,44.0881419 115.658042,44.211032 C115.716444,44.2251341 115.732556,44.2694551 115.732556,44.3460096 C115.732556,44.4809872 115.658042,44.6340961 115.567417,44.6340961 C114.568528,44.6340961 114.054986,44.5434395 113.253458,44.5434395 C112.451931,44.5434395 111.908181,44.6340961 111.016028,44.6340961 C110.971722,44.6340961 110.923389,44.6179794 110.923389,44.4971039 C110.923389,44.3601117 111.016028,44.2251341 111.106653,44.211032 C112.617069,44.0438209 112.677486,43.7114134 112.858736,42.939825 L114.552417,35.8162305 C114.60075,35.6188005 114.628944,35.4536041 114.628944,35.3025097 C114.628944,34.877431 114.357069,34.6658989 113.283667,34.5309213 C113.239361,34.5309213 113.207139,34.4704836 113.207139,34.4080312 C113.207139,34.2730536 113.297764,34.1058426 113.390403,34.1058426 C114.387278,34.1058426 114.900819,34.1964992 115.702347,34.1964992 C116.487764,34.1964992 117.033528,34.1058426 117.939778,34.1058426 C117.986097,34.1058426 118.016306,34.138076 118.016306,34.2569369 C118.016306,34.379827 117.939778,34.5309213 117.835056,34.5309213" id="Fill-33" fill="#FFFFFF"></path>
                <g id="Group-37" transform="translate(127.476942, 34.074997)">
                    <mask id="mask-6" fill="white">
                        <use xlink:href="#path-5"></use>
                    </mask>
                    <g id="Clip-36"></g>
                    <path d="M13.1992388,0.469825051 C12.035211,0.592715114 11.7472249,0.999662535 11.6122944,1.7410321 L9.9025027,10.6495544 C9.88840547,10.740211 9.8118777,10.8006487 9.70916936,10.8006487 C9.58632214,10.8006487 9.54201659,10.740211 9.47958603,10.6777586 L4.12868325,2.19431511 L2.82972492,8.86462656 C2.64646103,9.60599612 2.87403047,9.99682681 3.97764159,10.1358336 C4.03805825,10.1499357 4.05215547,10.1942567 4.05215547,10.2708112 C4.05215547,10.4078034 3.97764159,10.5588978 3.88701659,10.5588978 C3.25264159,10.5588978 2.67666936,10.4682412 2.0725027,10.4682412 C1.46833603,10.4682412 0.848058252,10.5588978 0.318405475,10.5588978 C0.274099919,10.5588978 0.227780475,10.542781 0.227780475,10.4219056 C0.227780475,10.2849134 0.318405475,10.1499357 0.409030475,10.1358336 C1.58715547,9.99682681 1.93555825,9.60599612 2.11680825,8.86462656 L3.66146103,1.7410321 C3.70576659,1.60403989 3.71986381,1.48316442 3.71986381,1.36228895 C3.71986381,0.834466057 3.29694714,0.604802661 2.13291936,0.455722913 C2.0725027,0.455722913 2.05840547,0.395285177 2.05840547,0.334847441 C2.05840547,0.19785524 2.13291936,0.0306441705 2.23965547,0.0306441705 C2.67666936,0.0306441705 2.96465547,0.0930964976 3.35736381,0.0930964976 C3.78028047,0.0930964976 4.09646103,0.0306441705 4.53548881,0.0306441705 L9.79979436,8.18369474 L10.9175027,1.7410321 C11.0544471,0.999662535 10.7503499,0.604802661 9.63264159,0.469825051 C9.58632214,0.455722913 9.54201659,0.411401906 9.54201659,0.334847441 C9.54201659,0.19785524 9.63264159,0.0467609001 9.7212527,0.0467609001 C10.3415305,0.0467609001 10.857086,0.121300774 11.5377805,0.121300774 C12.1862527,0.121300774 12.6554888,0.0467609001 13.2898638,0.0467609001 C13.3361833,0.0467609001 13.3663916,0.0628776296 13.3663916,0.18173851 C13.3663916,0.304628573 13.2898638,0.455722913 13.1992388,0.469825051" id="Fill-35" fill="#FFFFFF" mask="url(#mask-6)"></path>
                </g>
                <path d="M159.583979,35.4536041 C159.583979,35.7416906 159.60009,36.2836156 159.60009,36.5717022 C159.60009,36.6482566 159.509465,36.6925777 159.386618,36.6925777 C159.267799,36.6925777 159.191271,36.6482566 159.177174,36.5717022 C159.054326,35.1957364 158.51259,34.6800011 157.195507,34.6800011 L156.168424,34.6800011 C155.773701,34.6800011 155.246063,34.8472121 155.064813,35.5885817 L154.261271,38.9610073 L156.122104,38.9610073 C156.939743,38.9610073 157.376757,38.854234 157.845993,37.5105017 C157.876201,37.4339472 157.950715,37.3896262 158.073563,37.3896262 C158.208493,37.3896262 158.299118,37.4339472 158.283007,37.5105017 C158.103771,38.2659734 157.997035,38.5218265 157.831896,39.2329772 C157.664743,39.9441278 157.604326,40.4437465 157.423076,41.2012327 C157.392868,41.2898748 157.302243,41.3200936 157.209604,41.3200936 C157.028354,41.3200936 156.984049,41.2616705 157.00016,41.2012327 C157.18141,39.6882748 156.863215,39.4445092 156.001271,39.4445092 L154.158563,39.4445092 L153.326826,42.939825 C153.280507,43.1352403 153.236201,43.3024514 153.236201,43.4535457 C153.236201,43.9068287 153.536271,44.0579231 153.94509,44.0579231 L155.789813,44.0579231 C157.060576,44.0579231 158.238701,43.1654592 158.63141,41.88015 C158.63141,41.835829 158.69384,41.8197122 158.754257,41.8197122 C158.919396,41.8197122 159.070438,41.9405877 159.054326,42.0171422 C158.798563,42.8169349 158.556896,43.7255155 158.373632,44.6340961 C157.451271,44.6018627 155.125229,44.5434395 154.158563,44.5434395 C153.189882,44.5434395 150.861826,44.6018627 149.939465,44.6340961 C149.893146,44.6340961 149.84884,44.6179794 149.84884,44.4971039 C149.84884,44.3601117 149.939465,44.2251341 150.03009,44.211032 C151.542521,44.0438209 151.600924,43.7114134 151.784188,42.939825 L153.477868,35.8162305 C153.522174,35.6188005 153.552382,35.4536041 153.552382,35.3025097 C153.552382,34.877431 153.280507,34.6658989 152.207104,34.5309213 C152.160785,34.5309213 152.130576,34.4704836 152.130576,34.4080312 C152.130576,34.2730536 152.223215,34.1058426 152.31384,34.1058426 C153.097243,34.1521782 155.155438,34.1964992 155.987174,34.1964992 C156.802799,34.1964992 158.858979,34.1521782 159.644396,34.1058426 C159.60009,34.6054612 159.583979,35.0144232 159.583979,35.4536041" id="Fill-38" fill="#FFFFFF"></path>
            </g>
        </g>
    </g>
</svg>